<?xml version="1.0" encoding="UTF-8" standalone="no"?>
<svg
   width="196"
   height="34"
   viewBox="0 0 196 34"
   fill="none"
   version="1.1"
   id="svg18"
   sodipodi:docname="mylittletable@2x.svg"
   inkscape:version="1.1 (c68e22c387, 2021-05-23)"
   xmlns:inkscape="http://www.inkscape.org/namespaces/inkscape"
   xmlns:sodipodi="http://sodipodi.sourceforge.net/DTD/sodipodi-0.dtd"
   xmlns="http://www.w3.org/2000/svg"
   xmlns:svg="http://www.w3.org/2000/svg">
  <defs
     id="defs22">
    <rect
       x="4.6964856"
       y="-66.690096"
       width="271.45687"
       height="51.348243"
       id="rect3413" />
  </defs>
  <sodipodi:namedview
     id="namedview20"
     pagecolor="#ffffff"
     bordercolor="#666666"
     borderopacity="1.0"
     inkscape:pageshadow="2"
     inkscape:pageopacity="0.0"
     inkscape:pagecheckerboard="0"
     showgrid="false"
     inkscape:zoom="3.1938776"
     inkscape:cx="101.28754"
     inkscape:cy="26.14377"
     inkscape:window-width="1842"
     inkscape:window-height="1051"
     inkscape:window-x="69"
     inkscape:window-y="-9"
     inkscape:window-maximized="1"
     inkscape:current-layer="svg18" />
  <g
     aria-label="mylittletable"
     transform="matrix(0.92318514,0,0,1,-4.3116611,56.984026)"
     id="text3411"
     style="font-size:40px;line-height:1.25;white-space:pre;shape-inside:url(#rect3413);fill:#000000"
     inkscape:export-filename="C:\Users\murie\Documents\projects_tests\Icons\mylittletable.png"
     inkscape:export-xdpi="150.2"
     inkscape:export-ydpi="150.2">
    <path
       d="m 12.869141,-46.751953 q 0.890625,0 0.890625,1.265625 0,0.01563 0,0.265625 -0.01563,0.25 -0.01563,0.40625 0,0.84375 0.5,0.84375 0.265625,0 0.828125,-0.671875 0.84375,-0.96875 2.125,-1.53125 1.28125,-0.578125 2.625,-0.578125 2.609375,0 3.625,1.90625 0.390625,0.703125 0.640625,0.703125 0.171875,0 0.8125,-0.625 2.03125,-1.984375 4.609375,-1.984375 2.015625,0 3.296875,1.109375 1.34375,1.15625 1.34375,3.46875 0,0.5 -0.03125,1.6875 -0.03125,0.40625 -0.03125,2.453125 0,1.3125 -0.01563,1.84375 -0.01563,0.328125 -0.01563,0.46875 0,1 0.625,1.75 0.375,0.453125 0.453125,0.609375 0.09375,0.140625 0.09375,0.390625 0,2 -4.703125,2 -2.078125,0 -3.359375,-0.5 -1.265625,-0.5 -1.265625,-1.3125 0,-0.3125 0.07813,-0.46875 0.09375,-0.171875 0.609375,-0.875 0.484375,-0.640625 0.484375,-4.265625 0,-2.109375 -0.296875,-2.9375 -0.34375,-0.984375 -1.375,-0.984375 -0.515625,0 -0.921875,0.328125 -0.390625,0.3125 -0.515625,0.796875 -0.140625,0.5625 -0.15625,3 0.04687,2.625 0.15625,3.1875 0.125,0.5625 0.796875,1.5625 0.15625,0.234375 0.15625,0.59375 0,1.859375 -4.859375,1.859375 -2.921875,0 -3.9375,-0.4375 -0.8125,-0.34375 -0.8125,-1.21875 0,-0.390625 0.09375,-0.546875 0.109375,-0.15625 0.703125,-0.71875 0.34375,-0.328125 0.4375,-0.609375 0.109375,-0.296875 0.15625,-1.0625 0.109375,-1.71875 0.109375,-3.46875 0,-3.0625 -1.5625,-3.0625 -1.171875,0 -1.390625,1.3125 -0.1875,1.234375 -0.1875,3.53125 0,1.71875 0.0625,2.25 0.07813,0.53125 0.390625,1.109375 0.375,0.671875 0.375,1.09375 0,1.015625 -1.421875,1.40625 -1.546875,0.421875 -3.4062504,0.421875 -2.40625,0 -3.53125,-0.375 -1.125,-0.390625 -1.125,-1.21875 0,-0.3125 0.140625,-0.53125 0.15625,-0.21875 0.6875,-0.6875 0.703125,-0.640625 0.8125,-1.765625 0.171875,-1.9375 0.171875,-4.015625 0,-1.484375 -0.15625,-2.0625 -0.140625,-0.59375 -0.625,-0.953125 -0.46875,-0.359375 -0.609375,-0.546875 -0.125,-0.1875 -0.125,-0.515625 0,-1.046875 1.640625,-1.65625 3.9531254,-1.421875 5.9218754,-1.4375 z"
       style="font-size:32px;font-family:'Cooper Black';-inkscape-font-specification:'Cooper Black, Normal'"
       id="path37065" />
    <path
       d="m 50.681641,-39.173828 -2.0625,5.671875 q -0.765625,2.109375 -1.546875,3.4375 -0.765625,1.34375 -1.75,2.28125 -2.03125,1.9375 -4.890625,1.9375 -2.3125,0 -3.75,-1.21875 -1.109375,-0.9375 -1.109375,-2.390625 0,-1.203125 0.765625,-2.015625 0.78125,-0.828125 1.90625,-0.828125 1.125,0 1.8125,0.75 0.328125,0.34375 0.4375,0.609375 0.109375,0.265625 0.328125,1.171875 0.171875,0.6875 0.78125,0.6875 0.484375,0 0.8125,-0.421875 0.328125,-0.421875 0.328125,-1.046875 0,-0.734375 -0.8125,-2.453125 l -3.765625,-8.015625 q -0.59375,-1.25 -0.890625,-1.5625 -0.296875,-0.3125 -1.3125,-0.765625 -0.3125,-0.125 -0.546875,-0.484375 -0.21875,-0.375 -0.21875,-0.71875 0,-1.390625 2.765625,-1.890625 1.84375,-0.328125 4.203125,-0.328125 1.65625,0 2.609375,0.34375 1.28125,0.453125 1.28125,1.546875 0,0.390625 -0.359375,0.921875 -0.34375,0.5 -0.34375,0.890625 0,0.375 0.15625,0.78125 0.171875,0.40625 0.703125,1.375 0.59375,1.09375 1.046875,1.09375 0.484375,0 1,-0.953125 0.515625,-0.96875 0.515625,-1.859375 0,-0.71875 -0.390625,-1.171875 -0.59375,-0.703125 -0.59375,-1.203125 0,-0.796875 1.0625,-1.265625 1.0625,-0.484375 2.84375,-0.484375 3.3125,0 3.3125,1.59375 0,0.578125 -0.34375,0.9375 -0.328125,0.34375 -1.21875,0.65625 -0.75,0.28125 -1.1875,0.9375 -0.6875,1.046875 -1.578125,3.453125 z"
       style="font-size:32px;font-family:'Cooper Black';-inkscape-font-specification:'Cooper Black, Normal'"
       id="path37067" />
    <path
       d="m 63.712891,-43.689453 v 5.015625 q 0,3.328125 0.09375,3.875 0.109375,0.546875 0.78125,0.84375 0.578125,0.25 0.765625,0.46875 0.203125,0.21875 0.203125,0.625 0,0.515625 -0.375,0.9375 -0.359375,0.421875 -0.96875,0.59375 -1.125,0.34375 -3.796875,0.34375 -3.015625,0 -4.234375,-0.453125 -0.5625,-0.203125 -0.921875,-0.625 -0.359375,-0.4375 -0.359375,-0.90625 0,-0.375 0.1875,-0.578125 0.203125,-0.203125 0.859375,-0.484375 0.609375,-0.265625 0.75,-1.453125 0.25,-2.03125 0.25,-5.78125 0,-3.8125 -0.21875,-4.90625 -0.21875,-1.09375 -1.09375,-1.625 -0.65625,-0.375 -0.90625,-0.703125 -0.234375,-0.34375 -0.234375,-0.828125 0,-0.765625 0.734375,-1.328125 0.734375,-0.578125 2.34375,-1.0625 1.078125,-0.328125 2.796875,-0.625 1.71875,-0.296875 2.5,-0.296875 1.234375,0 1.234375,1.53125 0,0.5 -0.15625,2.296875 -0.203125,2.796875 -0.234375,5.125 z"
       style="font-size:32px;font-family:'Cooper Black';-inkscape-font-specification:'Cooper Black, Normal'"
       id="path37069" />
    <path
       d="m 75.166016,-45.783203 v 9.078125 q 0,1.078125 0.1875,1.578125 0.203125,0.5 0.796875,0.921875 0.484375,0.34375 0.640625,0.59375 0.171875,0.234375 0.171875,0.609375 0,2.015625 -5.109375,2.015625 -2.75,0 -4.359375,-0.4375 -0.546875,-0.15625 -0.890625,-0.546875 -0.328125,-0.390625 -0.328125,-0.890625 0,-0.421875 0.171875,-0.65625 0.171875,-0.234375 0.875,-0.75 0.484375,-0.359375 0.6875,-1.171875 0.203125,-0.8125 0.203125,-2.421875 0,-0.515625 -0.07813,-1.921875 -0.0625,-1.421875 -0.09375,-1.65625 -0.09375,-0.640625 -0.875,-0.984375 -0.96875,-0.421875 -0.96875,-1.25 0,-0.984375 1.265625,-1.46875 1.75,-0.671875 3.75,-1.140625 2,-0.46875 3.09375,-0.46875 0.859375,0 0.859375,0.96875 z m -3.09375,-6.84375 q 1.359375,0 2.15625,0.515625 0.796875,0.5 0.796875,1.359375 0,1.203125 -1.203125,1.90625 -1.90625,1.109375 -4.609375,1.109375 -1.140625,0 -1.8125,-0.4375 -0.90625,-0.5625 -0.90625,-1.5625 0,-1.34375 1.921875,-2.109375 1.953125,-0.78125 3.65625,-0.78125 z"
       style="font-size:32px;font-family:'Cooper Black';-inkscape-font-specification:'Cooper Black, Normal'"
       id="path37071" />
    <path
       d="m 87.166016,-42.767578 v 5.28125 q 0,0.9375 0.453125,1.53125 0.46875,0.59375 1.1875,0.59375 0.609375,0 1.609375,-0.5625 0.234375,-0.140625 0.46875,-0.140625 0.375,0 0.6875,0.453125 0.3125,0.453125 0.3125,0.984375 0,0.96875 -1.0625,1.859375 -2.21875,1.890625 -5.375,1.890625 -2.5,0 -4.015625,-1.40625 -1.515625,-1.421875 -1.515625,-3.734375 v -7.21875 q 0,-0.359375 -0.09375,-0.4375 -0.07813,-0.09375 -0.4375,-0.09375 h -1.609375 q -0.453125,0 -0.578125,-0.140625 -0.125,-0.15625 -0.125,-0.703125 v -0.6875 q 0.01563,-0.46875 0.359375,-0.6875 l 7.15625,-4.5 q 0.265625,-0.140625 0.65625,-0.140625 h 1.265625 q 0.390625,0 0.515625,0.1875 0.140625,0.171875 0.140625,0.703125 v 2.109375 q 0,0.46875 0.140625,0.609375 0.15625,0.140625 0.640625,0.140625 h 2.890625 q 0.578125,0 0.75,0.21875 0.171875,0.203125 0.171875,0.890625 v 0.921875 q 0,0.75 -0.21875,1.046875 -0.21875,0.28125 -0.796875,0.28125 h -2.828125 q -0.4375,0 -0.59375,0.15625 -0.15625,0.15625 -0.15625,0.59375 z"
       style="font-size:32px;font-family:'Cooper Black';-inkscape-font-specification:'Cooper Black, Normal'"
       id="path37073" />
    <path
       d="m 101.97852,-42.767578 v 5.28125 q 0,0.9375 0.45312,1.53125 0.46875,0.59375 1.1875,0.59375 0.60938,0 1.60938,-0.5625 0.23437,-0.140625 0.46875,-0.140625 0.375,0 0.6875,0.453125 0.3125,0.453125 0.3125,0.984375 0,0.96875 -1.0625,1.859375 -2.21875,1.890625 -5.375,1.890625 -2.500004,0 -4.015629,-1.40625 -1.515625,-1.421875 -1.515625,-3.734375 v -7.21875 q 0,-0.359375 -0.09375,-0.4375 -0.07813,-0.09375 -0.4375,-0.09375 h -1.609375 q -0.453125,0 -0.578125,-0.140625 -0.125,-0.15625 -0.125,-0.703125 v -0.6875 q 0.01563,-0.46875 0.359375,-0.6875 l 7.15625,-4.5 q 0.265625,-0.140625 0.656249,-0.140625 h 1.26563 q 0.39062,0 0.51562,0.1875 0.14063,0.171875 0.14063,0.703125 v 2.109375 q 0,0.46875 0.14062,0.609375 0.15625,0.140625 0.64063,0.140625 h 2.89062 q 0.57813,0 0.75,0.21875 0.17188,0.203125 0.17188,0.890625 v 0.921875 q 0,0.75 -0.21875,1.046875 -0.21875,0.28125 -0.79688,0.28125 h -2.82812 q -0.4375,0 -0.59375,0.15625 -0.15625,0.15625 -0.15625,0.59375 z"
       style="font-size:32px;font-family:'Cooper Black';-inkscape-font-specification:'Cooper Black, Normal'"
       id="path37075" />
    <path
       d="m 116.43164,-43.689453 v 5.015625 q 0,3.328125 0.0937,3.875 0.10938,0.546875 0.78125,0.84375 0.57813,0.25 0.76563,0.46875 0.20312,0.21875 0.20312,0.625 0,0.515625 -0.375,0.9375 -0.35937,0.421875 -0.96875,0.59375 -1.125,0.34375 -3.79687,0.34375 -3.01563,0 -4.23438,-0.453125 -0.5625,-0.203125 -0.92187,-0.625 -0.35938,-0.4375 -0.35938,-0.90625 0,-0.375 0.1875,-0.578125 0.20313,-0.203125 0.85938,-0.484375 0.60937,-0.265625 0.75,-1.453125 0.25,-2.03125 0.25,-5.78125 0,-3.8125 -0.21875,-4.90625 -0.21875,-1.09375 -1.09375,-1.625 -0.65625,-0.375 -0.90625,-0.703125 -0.23438,-0.34375 -0.23438,-0.828125 0,-0.765625 0.73438,-1.328125 0.73437,-0.578125 2.34375,-1.0625 1.07812,-0.328125 2.79687,-0.625 1.71875,-0.296875 2.5,-0.296875 1.23438,0 1.23438,1.53125 0,0.5 -0.15625,2.296875 -0.20313,2.796875 -0.23438,5.125 z"
       style="font-size:32px;font-family:'Cooper Black';-inkscape-font-specification:'Cooper Black, Normal'"
       id="path37077" />
    <path
       d="m 133.63477,-38.298828 h -7.34375 q -0.48438,0 -0.48438,0.421875 0,1.015625 1.09375,1.921875 1.10938,0.890625 2.375,0.890625 0.75,0 1.65625,-0.28125 0.92188,-0.296875 1.51563,-0.71875 0.53125,-0.375 0.84375,-0.375 0.40625,0 0.79687,0.5 0.39063,0.5 0.39063,1.03125 0,1.125 -1.40625,2.171875 -2.48438,1.859375 -5.73438,1.859375 -3.28125,0 -5.5,-1.90625 -1.07812,-0.9375 -1.78125,-2.265625 -0.92187,-1.765625 -0.92187,-3.71875 0,-2.625 1.59375,-4.71875 1.375,-1.8125 3.5,-2.703125 1.59375,-0.671875 3.45312,-0.671875 2.96875,0 5.04688,1.6875 1.04687,0.84375 1.6875,2 0.73437,1.3125 0.73437,2.5625 0,1.015625 -0.42187,1.671875 -0.42188,0.640625 -1.09375,0.640625 z m -6.9375,-2.921875 h 1.57812 q 1,0 1,-0.921875 0,-0.84375 -0.48437,-1.375 -0.48438,-0.53125 -1.26563,-0.53125 -0.875,0 -1.375,0.6875 -0.46875,0.640625 -0.46875,1.296875 0,0.46875 0.21875,0.65625 0.23438,0.1875 0.79688,0.1875 z"
       style="font-size:32px;font-family:'Cooper Black';-inkscape-font-specification:'Cooper Black, Normal'"
       id="path37079" />
    <path
       d="m 145.24414,-42.767578 v 5.28125 q 0,0.9375 0.45313,1.53125 0.46875,0.59375 1.1875,0.59375 0.60937,0 1.60937,-0.5625 0.23438,-0.140625 0.46875,-0.140625 0.375,0 0.6875,0.453125 0.3125,0.453125 0.3125,0.984375 0,0.96875 -1.0625,1.859375 -2.21875,1.890625 -5.375,1.890625 -2.5,0 -4.01562,-1.40625 -1.51563,-1.421875 -1.51563,-3.734375 v -7.21875 q 0,-0.359375 -0.0937,-0.4375 -0.0781,-0.09375 -0.4375,-0.09375 h -1.60937 q -0.45313,0 -0.57813,-0.140625 -0.125,-0.15625 -0.125,-0.703125 v -0.6875 q 0.0156,-0.46875 0.35938,-0.6875 l 7.15625,-4.5 q 0.26562,-0.140625 0.65625,-0.140625 h 1.26562 q 0.39063,0 0.51563,0.1875 0.14062,0.171875 0.14062,0.703125 v 2.109375 q 0,0.46875 0.14063,0.609375 0.15625,0.140625 0.64062,0.140625 h 2.89063 q 0.57812,0 0.75,0.21875 0.17187,0.203125 0.17187,0.890625 v 0.921875 q 0,0.75 -0.21875,1.046875 -0.21875,0.28125 -0.79687,0.28125 h -2.82813 q -0.4375,0 -0.59375,0.15625 -0.15625,0.15625 -0.15625,0.59375 z"
       style="font-size:32px;font-family:'Cooper Black';-inkscape-font-specification:'Cooper Black, Normal'"
       id="path37081" />
    <path
       d="m 159.86914,-46.876953 q 2.71875,0 4.60938,1.375 1,0.734375 1.39062,1.6875 0.40625,0.9375 0.40625,2.59375 l -0.0312,2.328125 q 0,2.421875 0.34375,3.140625 0.17188,0.34375 0.32813,0.4375 0.15625,0.09375 0.65625,0.171875 0.5,0.07813 0.5,0.65625 0,0.75 -0.60938,1.5625 -0.59375,0.8125 -1.54687,1.359375 -1.17188,0.6875 -2.45313,0.6875 -1.64062,0 -2.59375,-1.125 -0.32812,-0.40625 -0.60937,-0.40625 -0.3125,0 -0.82813,0.390625 -1.5625,1.140625 -3.54687,1.140625 -2.04688,0 -3.3125,-0.875 -0.82813,-0.578125 -1.3125,-1.5 -0.48438,-0.9375 -0.48438,-1.953125 0,-1.625 1.3125,-2.875 2.04688,-1.96875 6.125,-1.984375 0.90625,0 1.14063,-0.171875 0.23437,-0.1875 0.23437,-0.84375 0,-1.65625 -0.34375,-2.390625 -0.34375,-0.75 -1.125,-0.75 -0.46875,0 -0.84375,0.28125 -0.35937,0.28125 -0.90625,1.03125 -1.39062,1.984375 -2.90625,1.984375 -0.76562,0 -1.25,-0.453125 -0.48437,-0.453125 -0.48437,-1.1875 0,-0.75 0.59375,-1.5 0.60937,-0.75 1.64062,-1.3125 2.82813,-1.5 5.90625,-1.5 z m -1.04687,9.046875 q -0.6875,0 -1.20313,0.5625 -0.5,0.5625 -0.5,1.34375 0,0.75 0.35938,1.21875 0.35937,0.453125 0.95312,0.453125 1.25,0 1.25,-2.109375 0,-0.859375 -0.1875,-1.15625 -0.17187,-0.296875 -0.67187,-0.3125 z"
       style="font-size:32px;font-family:'Cooper Black';-inkscape-font-specification:'Cooper Black, Normal'"
       id="path37083" />
    <path
       d="m 177.58789,-51.689453 -0.20312,6.09375 q 0,0.21875 0,0.34375 0,0.3125 0.20312,0.3125 0.10938,0 0.625,-0.421875 1.82813,-1.5 4.03125,-1.5 2.1875,0 3.85938,1.578125 2.09375,1.984375 2.09375,5.171875 0,4.546875 -3.39063,7.265625 -2.4375,1.96875 -5.71875,1.96875 -1.625,0 -2.9375,-0.421875 -1.29687,-0.40625 -2.84375,-1.40625 -0.23437,-0.140625 -0.375,-0.140625 -0.17187,0 -0.96875,0.296875 -0.40625,0.15625 -0.95312,0.15625 -0.96875,0 -0.96875,-0.625 0,-0.203125 0.0781,-0.46875 0.3125,-1.015625 0.42188,-2.515625 0.10937,-1.5 0.10937,-4.75 v -4.3125 q 0,-1.609375 -0.125,-2.015625 -0.125,-0.40625 -0.70312,-0.640625 -0.8125,-0.34375 -1.125,-0.671875 -0.3125,-0.34375 -0.3125,-0.859375 0,-1.046875 2.23437,-2.046875 1.21875,-0.53125 3.03125,-0.921875 1.82813,-0.40625 3.125,-0.40625 0.82813,0 0.8125,0.9375 z m 1.34375,9.53125 q -0.84375,0 -1.21875,0.578125 -0.29687,0.4375 -0.29687,1.78125 0,3.671875 0.25,4.953125 0.21875,1.1875 1.32812,1.1875 1.14063,0 1.73438,-0.96875 0.59375,-0.96875 0.59375,-2.8125 0,-2.71875 -1,-3.96875 -0.57813,-0.71875 -1.39063,-0.75 z"
       style="font-size:32px;font-family:'Cooper Black';-inkscape-font-specification:'Cooper Black, Normal'"
       id="path37085" />
    <path
       d="m 198.24414,-43.689453 v 5.015625 q 0,3.328125 0.0937,3.875 0.10938,0.546875 0.78125,0.84375 0.57813,0.25 0.76563,0.46875 0.20312,0.21875 0.20312,0.625 0,0.515625 -0.375,0.9375 -0.35937,0.421875 -0.96875,0.59375 -1.125,0.34375 -3.79687,0.34375 -3.01563,0 -4.23438,-0.453125 -0.5625,-0.203125 -0.92187,-0.625 -0.35938,-0.4375 -0.35938,-0.90625 0,-0.375 0.1875,-0.578125 0.20313,-0.203125 0.85938,-0.484375 0.60937,-0.265625 0.75,-1.453125 0.25,-2.03125 0.25,-5.78125 0,-3.8125 -0.21875,-4.90625 -0.21875,-1.09375 -1.09375,-1.625 -0.65625,-0.375 -0.90625,-0.703125 -0.23438,-0.34375 -0.23438,-0.828125 0,-0.765625 0.73438,-1.328125 0.73437,-0.578125 2.34375,-1.0625 1.07812,-0.328125 2.79687,-0.625 1.71875,-0.296875 2.5,-0.296875 1.23438,0 1.23438,1.53125 0,0.5 -0.15625,2.296875 -0.20313,2.796875 -0.23438,5.125 z"
       style="font-size:32px;font-family:'Cooper Black';-inkscape-font-specification:'Cooper Black, Normal'"
       id="path37087" />
    <path
       d="m 215.44727,-38.298828 h -7.34375 q -0.48438,0 -0.48438,0.421875 0,1.015625 1.09375,1.921875 1.10938,0.890625 2.375,0.890625 0.75,0 1.65625,-0.28125 0.92188,-0.296875 1.51563,-0.71875 0.53125,-0.375 0.84375,-0.375 0.40625,0 0.79687,0.5 0.39063,0.5 0.39063,1.03125 0,1.125 -1.40625,2.171875 -2.48438,1.859375 -5.73438,1.859375 -3.28125,0 -5.5,-1.90625 -1.07812,-0.9375 -1.78125,-2.265625 -0.92187,-1.765625 -0.92187,-3.71875 0,-2.625 1.59375,-4.71875 1.375,-1.8125 3.5,-2.703125 1.59375,-0.671875 3.45312,-0.671875 2.96875,0 5.04688,1.6875 1.04687,0.84375 1.6875,2 0.73437,1.3125 0.73437,2.5625 0,1.015625 -0.42187,1.671875 -0.42188,0.640625 -1.09375,0.640625 z m -6.9375,-2.921875 h 1.57812 q 1,0 1,-0.921875 0,-0.84375 -0.48437,-1.375 -0.48438,-0.53125 -1.26563,-0.53125 -0.875,0 -1.375,0.6875 -0.46875,0.640625 -0.46875,1.296875 0,0.46875 0.21875,0.65625 0.23438,0.1875 0.79688,0.1875 z"
       style="font-size:32px;font-family:'Cooper Black';-inkscape-font-specification:'Cooper Black, Normal'"
       id="path37089" />
  </g>
</svg>
